<mxfile host="app.diagrams.net" agent="Mozilla/5.0 (Macintosh; Intel Mac OS X 10_15_7) AppleWebKit/605.1.15 (KHTML, like Gecko) Version/18.3.1 Safari/605.1.15" version="26.1.1">
  <diagram name="Page-1" id="dOflewxK2E6iJe3cRCym">
    <mxGraphModel dx="1291" dy="2049" grid="1" gridSize="10" guides="1" tooltips="1" connect="1" arrows="1" fold="1" page="1" pageScale="1" pageWidth="827" pageHeight="1169" math="0" shadow="0">
      <root>
        <mxCell id="0" />
        <mxCell id="1" parent="0" />
        <mxCell id="Xbx7092GDcm17mwoblus-20" style="edgeStyle=orthogonalEdgeStyle;rounded=0;orthogonalLoop=1;jettySize=auto;html=1;exitX=1;exitY=0.5;exitDx=0;exitDy=0;entryX=0.75;entryY=1;entryDx=0;entryDy=0;" edge="1" parent="1" source="qFKNKnolFcqOa4xKhwx_-2" target="Xbx7092GDcm17mwoblus-6">
          <mxGeometry relative="1" as="geometry" />
        </mxCell>
        <mxCell id="Xbx7092GDcm17mwoblus-26" style="edgeStyle=orthogonalEdgeStyle;rounded=0;orthogonalLoop=1;jettySize=auto;html=1;exitX=0.5;exitY=1;exitDx=0;exitDy=0;" edge="1" parent="1" source="qFKNKnolFcqOa4xKhwx_-2" target="Xbx7092GDcm17mwoblus-4">
          <mxGeometry relative="1" as="geometry">
            <Array as="points">
              <mxPoint x="435" y="570" />
              <mxPoint x="190" y="570" />
            </Array>
          </mxGeometry>
        </mxCell>
        <mxCell id="qFKNKnolFcqOa4xKhwx_-2" value="System rezerwacji wizyt&amp;nbsp;" style="ellipse;whiteSpace=wrap;html=1;aspect=fixed;fillColor=#e51400;strokeColor=#B20000;fontColor=#ffffff;" parent="1" vertex="1">
          <mxGeometry x="350" y="290" width="170" height="170" as="geometry" />
        </mxCell>
        <mxCell id="Xbx7092GDcm17mwoblus-4" value="System płatności" style="rounded=1;whiteSpace=wrap;html=1;fillColor=#999999;" vertex="1" parent="1">
          <mxGeometry x="110" y="585" width="160" height="85" as="geometry" />
        </mxCell>
        <mxCell id="Xbx7092GDcm17mwoblus-5" value="&lt;font style=&quot;font-size: 14px;&quot;&gt;Firma&lt;/font&gt;&lt;div&gt;[grupa osób]&lt;/div&gt;&lt;div&gt;Usługodawca aplikacji z&amp;nbsp;&lt;/div&gt;&lt;div&gt;firmowym kontem&lt;/div&gt;" style="rounded=1;whiteSpace=wrap;html=1;fillColor=#a20025;fontColor=#ffffff;strokeColor=#6F0000;" vertex="1" parent="1">
          <mxGeometry x="661" y="450" width="160" height="120" as="geometry" />
        </mxCell>
        <mxCell id="Xbx7092GDcm17mwoblus-6" value="&lt;font style=&quot;font-size: 14px;&quot;&gt;Fryzjer&lt;/font&gt;&lt;div&gt;[osoba]&lt;/div&gt;&lt;div&gt;Pracownik&amp;nbsp;&lt;/div&gt;&lt;div&gt;firmy&lt;/div&gt;" style="rounded=1;whiteSpace=wrap;html=1;fillColor=#a20025;fontColor=#ffffff;strokeColor=#6F0000;" vertex="1" parent="1">
          <mxGeometry x="660" y="200" width="160" height="90" as="geometry" />
        </mxCell>
        <mxCell id="Xbx7092GDcm17mwoblus-12" style="edgeStyle=orthogonalEdgeStyle;rounded=0;orthogonalLoop=1;jettySize=auto;html=1;exitX=1;exitY=1;exitDx=0;exitDy=0;" edge="1" parent="1" source="Xbx7092GDcm17mwoblus-7" target="qFKNKnolFcqOa4xKhwx_-2">
          <mxGeometry relative="1" as="geometry" />
        </mxCell>
        <mxCell id="Xbx7092GDcm17mwoblus-7" value="&lt;font style=&quot;font-size: 14px;&quot;&gt;Administrator&lt;/font&gt;&lt;div&gt;[osoba]&lt;/div&gt;&lt;div&gt;Pracownik moderujący&amp;nbsp;&lt;/div&gt;&lt;div&gt;aplikacją&amp;nbsp;&lt;/div&gt;" style="rounded=1;whiteSpace=wrap;html=1;fillColor=#a20025;fontColor=#ffffff;strokeColor=#6F0000;" vertex="1" parent="1">
          <mxGeometry x="51" y="190" width="160" height="110" as="geometry" />
        </mxCell>
        <mxCell id="Xbx7092GDcm17mwoblus-8" value="&lt;font style=&quot;font-size: 14px;&quot;&gt;Użytkownik&lt;/font&gt;&lt;div&gt;[osoba]&lt;/div&gt;&lt;div&gt;Klient aplikacji&lt;/div&gt;&lt;div&gt;z prywatnym kontem&lt;/div&gt;" style="rounded=1;whiteSpace=wrap;html=1;fillColor=#a20025;fontColor=#ffffff;strokeColor=#6F0000;" vertex="1" parent="1">
          <mxGeometry x="355" y="20" width="160" height="100" as="geometry" />
        </mxCell>
        <mxCell id="Xbx7092GDcm17mwoblus-13" style="edgeStyle=orthogonalEdgeStyle;rounded=0;orthogonalLoop=1;jettySize=auto;html=1;exitX=0.25;exitY=1;exitDx=0;exitDy=0;entryX=0.265;entryY=0.118;entryDx=0;entryDy=0;entryPerimeter=0;" edge="1" parent="1" source="Xbx7092GDcm17mwoblus-8" target="qFKNKnolFcqOa4xKhwx_-2">
          <mxGeometry relative="1" as="geometry" />
        </mxCell>
        <mxCell id="Xbx7092GDcm17mwoblus-16" value="" style="endArrow=classic;html=1;rounded=0;entryX=0.794;entryY=1.078;entryDx=0;entryDy=0;exitX=0.765;exitY=0.065;exitDx=0;exitDy=0;exitPerimeter=0;entryPerimeter=0;" edge="1" parent="1" source="qFKNKnolFcqOa4xKhwx_-2" target="Xbx7092GDcm17mwoblus-8">
          <mxGeometry width="50" height="50" relative="1" as="geometry">
            <mxPoint x="480" y="300" as="sourcePoint" />
            <mxPoint x="530" y="250" as="targetPoint" />
          </mxGeometry>
        </mxCell>
        <mxCell id="Xbx7092GDcm17mwoblus-19" style="edgeStyle=orthogonalEdgeStyle;rounded=0;orthogonalLoop=1;jettySize=auto;html=1;exitX=0;exitY=1;exitDx=0;exitDy=0;entryX=1;entryY=0.401;entryDx=0;entryDy=0;entryPerimeter=0;" edge="1" parent="1" source="Xbx7092GDcm17mwoblus-6" target="qFKNKnolFcqOa4xKhwx_-2">
          <mxGeometry relative="1" as="geometry" />
        </mxCell>
        <mxCell id="Xbx7092GDcm17mwoblus-25" style="edgeStyle=orthogonalEdgeStyle;rounded=0;orthogonalLoop=1;jettySize=auto;html=1;exitX=0.5;exitY=1;exitDx=0;exitDy=0;entryX=0.788;entryY=0.924;entryDx=0;entryDy=0;entryPerimeter=0;" edge="1" parent="1" source="Xbx7092GDcm17mwoblus-5" target="qFKNKnolFcqOa4xKhwx_-2">
          <mxGeometry relative="1" as="geometry" />
        </mxCell>
        <mxCell id="Xbx7092GDcm17mwoblus-27" style="edgeStyle=orthogonalEdgeStyle;rounded=0;orthogonalLoop=1;jettySize=auto;html=1;exitX=0;exitY=0.5;exitDx=0;exitDy=0;entryX=0.188;entryY=0.883;entryDx=0;entryDy=0;entryPerimeter=0;" edge="1" parent="1" source="Xbx7092GDcm17mwoblus-4" target="qFKNKnolFcqOa4xKhwx_-2">
          <mxGeometry relative="1" as="geometry">
            <mxPoint x="380" y="470" as="targetPoint" />
          </mxGeometry>
        </mxCell>
        <mxCell id="Xbx7092GDcm17mwoblus-32" value="Przegląda profile,&amp;nbsp;&lt;div&gt;rezerwuje wizyty&lt;/div&gt;" style="text;html=1;align=center;verticalAlign=middle;resizable=0;points=[];autosize=1;strokeColor=none;fillColor=none;" vertex="1" parent="1">
          <mxGeometry x="280" y="180" width="120" height="40" as="geometry" />
        </mxCell>
        <mxCell id="Xbx7092GDcm17mwoblus-33" value="Potwierdzenie&amp;nbsp;&lt;div&gt;rezerwacji&lt;/div&gt;" style="text;html=1;align=center;verticalAlign=middle;resizable=0;points=[];autosize=1;strokeColor=none;fillColor=none;" vertex="1" parent="1">
          <mxGeometry x="480" y="183" width="100" height="40" as="geometry" />
        </mxCell>
        <mxCell id="Xbx7092GDcm17mwoblus-34" value="Zarządza grafikiem,&amp;nbsp;&lt;div&gt;potwierdza wizyty&lt;/div&gt;" style="text;html=1;align=center;verticalAlign=middle;resizable=0;points=[];autosize=1;strokeColor=none;fillColor=none;" vertex="1" parent="1">
          <mxGeometry x="530" y="310" width="130" height="40" as="geometry" />
        </mxCell>
        <mxCell id="Xbx7092GDcm17mwoblus-35" value="Potwierdzenie&amp;nbsp;&lt;div&gt;rezerwacji&lt;/div&gt;" style="text;html=1;align=center;verticalAlign=middle;resizable=0;points=[];autosize=1;strokeColor=none;fillColor=none;" vertex="1" parent="1">
          <mxGeometry x="680" y="330" width="100" height="40" as="geometry" />
        </mxCell>
        <mxCell id="Xbx7092GDcm17mwoblus-36" value="Zarządza zespołem,&amp;nbsp;&lt;div&gt;oferuje usługi&lt;/div&gt;" style="text;html=1;align=center;verticalAlign=middle;resizable=0;points=[];autosize=1;strokeColor=none;fillColor=none;" vertex="1" parent="1">
          <mxGeometry x="640" y="590" width="130" height="40" as="geometry" />
        </mxCell>
        <mxCell id="Xbx7092GDcm17mwoblus-37" value="Potwierdzenie&amp;nbsp;&lt;div&gt;rezerwacji&lt;/div&gt;" style="text;html=1;align=center;verticalAlign=middle;resizable=0;points=[];autosize=1;strokeColor=none;fillColor=none;" vertex="1" parent="1">
          <mxGeometry x="570" y="400" width="100" height="40" as="geometry" />
        </mxCell>
        <mxCell id="Xbx7092GDcm17mwoblus-38" value="Moderuje treści,&amp;nbsp;&lt;div&gt;zarządza użytkownikami&lt;/div&gt;" style="text;html=1;align=center;verticalAlign=middle;resizable=0;points=[];autosize=1;strokeColor=none;fillColor=none;" vertex="1" parent="1">
          <mxGeometry x="205" y="320" width="150" height="40" as="geometry" />
        </mxCell>
        <mxCell id="Xbx7092GDcm17mwoblus-39" value="Przetwarza płatności" style="text;html=1;align=center;verticalAlign=middle;resizable=0;points=[];autosize=1;strokeColor=none;fillColor=none;" vertex="1" parent="1">
          <mxGeometry x="250" y="540" width="130" height="30" as="geometry" />
        </mxCell>
        <mxCell id="Xbx7092GDcm17mwoblus-40" value="Obsługuje transakcje" style="text;html=1;align=center;verticalAlign=middle;resizable=0;points=[];autosize=1;strokeColor=none;fillColor=none;" vertex="1" parent="1">
          <mxGeometry x="150" y="480" width="140" height="30" as="geometry" />
        </mxCell>
        <mxCell id="Xbx7092GDcm17mwoblus-41" value="" style="ellipse;whiteSpace=wrap;html=1;aspect=fixed;fillColor=#a20025;fontColor=#ffffff;strokeColor=#6F0000;" vertex="1" parent="1">
          <mxGeometry x="395" y="-50" width="80" height="80" as="geometry" />
        </mxCell>
        <mxCell id="Xbx7092GDcm17mwoblus-42" value="" style="ellipse;whiteSpace=wrap;html=1;aspect=fixed;fillColor=#a20025;fontColor=#ffffff;strokeColor=#6F0000;" vertex="1" parent="1">
          <mxGeometry x="700" y="130" width="80" height="80" as="geometry" />
        </mxCell>
        <mxCell id="Xbx7092GDcm17mwoblus-43" value="Email system" style="rounded=1;whiteSpace=wrap;html=1;fillColor=#999999;strokeColor=#36393d;" vertex="1" parent="1">
          <mxGeometry x="450" y="710" width="140" height="100" as="geometry" />
        </mxCell>
        <mxCell id="Xbx7092GDcm17mwoblus-44" style="edgeStyle=orthogonalEdgeStyle;rounded=0;orthogonalLoop=1;jettySize=auto;html=1;exitX=0.5;exitY=0;exitDx=0;exitDy=0;entryX=0.594;entryY=1.001;entryDx=0;entryDy=0;entryPerimeter=0;" edge="1" parent="1" source="Xbx7092GDcm17mwoblus-43" target="qFKNKnolFcqOa4xKhwx_-2">
          <mxGeometry relative="1" as="geometry" />
        </mxCell>
        <mxCell id="Xbx7092GDcm17mwoblus-45" value="Wysyła e-mail do osób korzystających z aplikacji&amp;nbsp;" style="text;html=1;align=center;verticalAlign=middle;whiteSpace=wrap;rounded=0;" vertex="1" parent="1">
          <mxGeometry x="540" y="630" width="60" height="30" as="geometry" />
        </mxCell>
        <mxCell id="Xbx7092GDcm17mwoblus-46" value="" style="ellipse;whiteSpace=wrap;html=1;aspect=fixed;fillColor=#a20025;fontColor=#ffffff;strokeColor=#6F0000;" vertex="1" parent="1">
          <mxGeometry x="90" y="120" width="80" height="80" as="geometry" />
        </mxCell>
        <mxCell id="Xbx7092GDcm17mwoblus-48" value="" style="ellipse;whiteSpace=wrap;html=1;aspect=fixed;fillColor=#a20025;fontColor=#ffffff;strokeColor=#6F0000;" vertex="1" parent="1">
          <mxGeometry x="700" y="380" width="80" height="80" as="geometry" />
        </mxCell>
        <mxCell id="Xbx7092GDcm17mwoblus-49" value="" style="endArrow=classic;html=1;rounded=0;entryX=0.113;entryY=0.251;entryDx=0;entryDy=0;entryPerimeter=0;" edge="1" parent="1" target="Xbx7092GDcm17mwoblus-48">
          <mxGeometry width="50" height="50" relative="1" as="geometry">
            <mxPoint x="520" y="400" as="sourcePoint" />
            <mxPoint x="570" y="350" as="targetPoint" />
          </mxGeometry>
        </mxCell>
      </root>
    </mxGraphModel>
  </diagram>
</mxfile>
